#!OML:ASF F:\VICON\USERDATA\INSTALL\rory3\rory3.ASF
:FULLY-SPECIFIED
:DEGREES
206
root -0.108516 17.9977 -23.3013 3.76791 1.17775 6.5007
lowerback 8.07434 1.18689 -9.73514
upperback 0.150281 0.741581 1.52371
thorax -4.53876 0.597946 7.02327
lowerneck -14.7097 -5.46279 -14.4567
upperneck 23.4806 -5.87252 7.44166
head 10.651 -3.13587 4.29048
rclavicle -1.30204e-014 5.56597e-015
rhumerus -33.4227 -11.2705 -75.6966
rradius 34.9961
rwrist -15
rhand -12.1858 19.7416
rfingers 7.12502
rthumb 13.878 -9.77538
lclavicle -1.30204e-014 5.56597e-015
lhumerus -32.8476 0.00134007 80.9524
lradius 43.4262
lwrist -1.17283
lhand 0.131942 34.0925
lfingers 7.12502
lthumb 25.7167 62.3751
rfemur -33.8888 -3.86303 12.5419
rtibia 44.4871
rfoot -12.1302 -15.7376
rtoes 22.3151
lfemur -8.23873 -4.24462 -30.7794
ltibia 26.9098
lfoot -17.8284 3.49378
ltoes 6.29762
207
root -0.106906 18.0018 -23.1575 3.85388 1.05735 6.41294
lowerback 7.9417 1.17249 -9.67824
upperback 0.180909 0.745164 1.57379
thorax -4.43184 0.592421 7.04438
lowerneck -14.9485 -5.45028 -14.5426
upperneck 23.5904 -5.8316 7.56291
head 10.739 -3.10889 4.35553
rclavicle -1.41137e-014 -2.22639e-014
rhumerus -33.3199 -11.7854 -75.5133
rradius 34.5457
rwrist -14.7445
rhand -11.9417 19.7519
rfingers 7.12502
rthumb 14.1132 -9.74881
lclavicle -1.41137e-014 -2.22639e-014
lhumerus -32.6608 -0.150032 80.8788
lradius 43.0823
lwrist -2.37615
lhand 0.57383 34.1034
lfingers 7.12502
lthumb 26.1399 62.324
rfemur -34.1118 -3.38498 12.5049
rtibia 41.9316
rfoot -11.9739 -16.3138
rtoes 21.8166
lfemur -7.35271 -4.18526 -30.7217
ltibia 26.0221
lfoot -17.8981 3.5596
ltoes 5.92372
208
root -0.10896 18.0064 -23.0136 3.97798 0.97738 6.17473
lowerback 7.70007 1.11171 -9.51954
upperback 0.192992 0.708889 1.68391
thorax -4.2747 0.563974 7.07664
lowerneck -15.1156 -5.41861 -14.6177
upperneck 23.7282 -5.75792 7.60665
head 10.817 -3.07682 4.39665
rclavicle 7.05686e-015 -1.51076e-014
rhumerus -33.2873 -12.1882 -75.3679
rradius 34.0545
rwrist -14.4541
rhand -11.9781 19.5978
rfingers 7.12502
rthumb 14.0781 -9.90534
lclavicle 7.05686e-015 -1.51076e-014
lhumerus -32.6018 -0.230945 80.787
lradius 43.0707
lwrist -3.17206
lhand 1.11912 34.5345
lfingers 7.12502
lthumb 26.6618 62.6769
rfemur -34.3254 -2.70117 12.5805
rtibia 39.3226
rfoot -11.6897 -16.9146
rtoes 21.2345
lfemur -6.5227 -4.08765 -30.4517
ltibia 25.1472
lfoot -17.9416 3.52797
ltoes 5.20494
209
root -0.106626 18.0082 -22.8688 4.09112 1.0134 6.22782
lowerback 7.50667 1.01664 -9.58592
upperback 0.170652 0.596719 1.71806
thorax -4.16882 0.505577 7.16468
lowerneck -15.0989 -5.38316 -14.666
upperneck 23.7853 -5.68042 7.53436
head 10.8251 -3.05574 4.39075
rclavicle -1.46107e-014 -1.66979e-014
rhumerus -33.4053 -12.3708 -75.2289
rradius 33.7306
rwrist -14.2969
rhand -12.1979 19.1687
rfingers 7.12502
rthumb 13.8663 -10.3491
lclavicle -1.46107e-014 -1.66979e-014
lhumerus -32.6204 -0.567114 80.9003
lradius 42.9606
lwrist -2.3069
lhand -0.345771 33.0566
lfingers 7.12502
lthumb 25.2591 61.4045
rfemur -34.4687 -2.21573 12.2676
rtibia 36.7001
rfoot -11.0407 -17.1608
rtoes 20.5925
lfemur -5.638 -4.04685 -30.515
ltibia 24.2959
lfoot -17.9761 3.43893
ltoes 4.67656
210
root -0.100175 18.0061 -22.7255 4.23583 1.04611 6.50639
lowerback 7.37739 0.966572 -9.80059
upperback 0.126533 0.519824 1.64152
thorax -4.12943 0.470601 7.21416
lowerneck -15.0392 -5.36393 -14.7233
upperneck 23.7478 -5.66054 7.58891
head 10.8006 -3.04606 4.42352
rclavicle 2.09718e-014 9.54166e-015
rhumerus -33.6083 -12.6624 -75.0767
rradius 33.5896
rwrist -14.1736
rhand -12.1663 19.1296
rfingers 7.12502
rthumb 13.8967 -10.3861
lclavicle 2.09718e-014 9.54166e-015
lhumerus -32.4266 -0.903585 80.9503
lradius 42.7494
lwrist -2.49995
lhand -0.227959 33.8126
lfingers 7.12502
lthumb 25.372 62.1445
rfemur -34.6402 -1.94626 11.7016
rtibia 34.1175
rfoot -10.4913 -16.8765
rtoes 20.4407
lfemur -4.7675 -4.10351 -30.8632
ltibia 23.403
lfoot -17.9867 3.45967
ltoes 4.39937
211
root -0.097152 18.0003 -22.5828 4.32206 0.971148 6.68566
lowerback 7.37838 0.97944 -9.95197
upperback -0.0337544 0.513912 1.57078
thorax -4.30029 0.485542 7.22574
lowerneck -14.7092 -5.34114 -14.6683
upperneck 23.706 -5.68189 7.54314
head 10.7204 -3.06175 4.39699
rclavicle 1.12313e-014 0
rhumerus -34.1402 -12.9942 -74.8547
rradius 33.4837
rwrist -14.0466
rhand -12.188 19.2711
rfingers 7.12502
rthumb 13.8758 -10.246
lclavicle 1.12313e-014 0
lhumerus -32.5327 -1.23832 80.9355
lradius 42.6059
lwrist -2.64771
lhand -0.10229 33.9045
lfingers 7.12502
lthumb 25.4924 62.2193
rfemur -34.7718 -1.47672 11.2195
rtibia 31.6412
rfoot -10.3931 -16.4309
rtoes 20.6347
lfemur -3.84864 -4.05662 -31.094
ltibia 22.4298
lfoot -17.9042 3.42263
ltoes 4.31783
212
root -0.098206 17.9929 -22.4332 4.28424 1.10476 6.84411
lowerback 7.35805 0.8928 -10.1183
upperback -0.0512239 0.385253 1.56489
thorax -4.2834 0.425059 7.32945
lowerneck -14.6269 -5.3259 -14.6284
upperneck 23.72 -5.65733 7.43969
head 10.7024 -3.06065 4.35661
rclavicle 5.76476e-015 1.35174e-014
rhumerus -34.4352 -13.2264 -74.6823
rradius 33.3237
rwrist -14.0458
rhand -12.4406 18.7754
rfingers 7.12502
rthumb 13.6324 -10.7582
lclavicle 5.76476e-015 1.35174e-014
lhumerus -32.5209 -1.29505 80.908
lradius 42.4525
lwrist -2.86598
lhand 0.0168725 34.3132
lfingers 7.12502
lthumb 25.6065 62.6117
rfemur -34.6556 -0.946794 10.6587
rtibia 29.2517
rfoot -10.3185 -16.0189
rtoes 19.822
lfemur -2.7572 -3.90935 -31.2354
ltibia 21.5125
lfoot -17.9115 3.03699
ltoes 4.3745
213
root -0.0956451 17.9829 -22.2793 4.28897 1.44666 7.14427
lowerback 7.21067 0.71242 -10.3353
upperback 0.0411583 0.144909 1.51645
thorax -4.05427 0.293302 7.42711
lowerneck -14.6512 -5.31386 -14.7254
upperneck 23.654 -5.63269 7.53017
head 10.6855 -3.04608 4.40831
rclavicle 1.22253e-014 -2.14687e-014
rhumerus -34.3486 -13.6308 -74.5227
rradius 32.9039
rwrist -13.9526
rhand -12.5241 18.2551
rfingers 7.12502
rthumb 13.5519 -11.2838
lclavicle 1.22253e-014 -2.14687e-014
lhumerus -32.3226 -1.34392 80.8928
lradius 42.2628
lwrist -2.95845
lhand -0.193479 34.5678
lfingers 7.12502
lthumb 25.405 62.895
rfemur -34.4922 -0.796193 9.97231
rtibia 26.9234
rfoot -10.1266 -15.251
rtoes 17.2061
lfemur -1.7177 -3.86963 -31.5187
ltibia 20.7388
lfoot -17.9844 2.6706
ltoes 3.77659
214
root -0.0915198 17.9751 -22.1278 4.36054 1.68868 7.24276
lowerback 7.0422 0.577753 -10.3022
upperback 0.0575828 -0.013047 1.49279
thorax -3.90898 0.205178 7.39787
lowerneck -14.5372 -5.32293 -14.8963
upperneck 23.569 -5.66908 7.73035
head 10.6484 -3.05607 4.50545
rclavicle 2.48481e-014 -1.90833e-014
rhumerus -34.4021 -14.0627 -74.2976
rradius 32.462
rwrist -13.8045
rhand -12.3564 18.3635
rfingers 7.12502
rthumb 13.7135 -11.1646
lclavicle 2.48481e-014 -1.90833e-014
lhumerus -32.4127 -1.48142 80.873
lradius 42.4241
lwrist -3.01405
lhand -0.304992 34.1479
lfingers 7.12502
lthumb 25.2982 62.4903
rfemur -34.4168 -0.612446 9.56662
rtibia 24.714
rfoot -10.1502 -14.3273
rtoes 13.9138
lfemur -0.86349 -3.88065 -31.6035
ltibia 19.9983
lfoot -17.9402 2.54494
ltoes 2.84015
215
root -0.0909254 17.9733 -21.9761 4.42895 1.83401 7.17891
lowerback 6.83606 0.488892 -10.169
upperback 0.13156 -0.0932549 1.52099
thorax -3.69739 0.148345 7.3576
lowerneck -14.7588 -5.37982 -15.0653
upperneck 23.6125 -5.72636 7.93651
head 10.7269 -3.07087 4.60078
rclavicle -3.97569e-015 1.51076e-014
rhumerus -34.4285 -14.558 -74.0835
rradius 32.0971
rwrist -13.5632
rhand -12.0573 18.6571
rfingers 7.12502
rthumb 14.0018 -10.8514
lclavicle -3.97569e-015 1.51076e-014
lhumerus -32.3746 -1.53992 80.8418
lradius 42.5765
lwrist -3.2032
lhand -0.0771156 34.0898
lfingers 7.12502
lthumb 25.5165 62.4012
rfemur -34.3243 -0.0144269 9.20497
rtibia 22.6741
rfoot -10.7475 -13.6691
rtoes 13.3129
lfemur -0.0817211 -3.85051 -31.498
ltibia 19.2753
lfoot -17.8735 2.34182
ltoes 3.0139
216
root -0.0889199 17.9661 -21.8229 4.48132 1.97208 7.27625
lowerback 6.75737 0.433236 -10.1795
upperback 0.123411 -0.161539 1.47838
thorax -3.64785 0.111782 7.32373
lowerneck -14.8301 -5.42144 -14.9693
upperneck 23.6316 -5.78042 7.86145
head 10.7494 -3.09438 4.54817
rclavicle 4.96962e-016 -2.14687e-014
rhumerus -34.6644 -15.0936 -73.8488
rradius 31.8143
rwrist -13.3597
rhand -11.9031 18.7887
rfingers 7.12502
rthumb 14.1503 -10.7094
lclavicle 4.96962e-016 -2.14687e-014
lhumerus -32.2064 -1.68563 80.823
lradius 42.2294
lwrist -3.35668
lhand -0.0681029 33.8336
lfingers 7.12502
lthumb 25.5251 62.1437
rfemur -34.2044 0.548127 8.609
rtibia 20.8236
rfoot -11.4603 -13.0574
rtoes 13.4673
lfemur 0.755452 -3.80176 -31.5788
ltibia 18.6181
lfoot -17.8216 2.12762
ltoes 2.98918
217
root -0.0919096 17.9536 -21.6718 4.51829 2.17533 7.34123
lowerback 6.7863 0.38117 -10.1901
upperback 0.0358879 -0.239753 1.45857
thorax -3.74121 0.0816444 7.31706
lowerneck -14.5619 -5.46281 -14.6151
upperneck 23.4973 -5.86068 7.44964
head 10.6339 -3.14796 4.32351
rclavicle 9.24349e-015 -3.57812e-014
rhumerus -35.1021 -15.4288 -73.6054
rradius 31.7164
rwrist -13.3125
rhand -12.3388 18.5199
rfingers 7.12502
rthumb 13.7305 -11.0071
lclavicle 9.24349e-015 -3.57812e-014
lhumerus -32.1874 -1.8966 80.8576
lradius 41.8282
lwrist -3.47281
lhand -0.304915 33.1991
lfingers 7.12502
lthumb 25.2983 61.5415
rfemur -34.1207 1.26498 7.97932
rtibia 19.2787
rfoot -11.8969 -12.8612
rtoes 11.3658
lfemur 1.62772 -3.78803 -31.5829
ltibia 17.9509
lfoot -17.7524 1.88278
ltoes 2.21129
218
root -0.0983092 17.9403 -21.5202 4.54681 2.413 7.34187
lowerback 6.6829 0.285122 -10.2109
upperback 0.10452 -0.352262 1.52249
thorax -3.58687 0.0153051 7.40676
lowerneck -15.0396 -5.44532 -14.9452
upperneck 23.9046 -5.76397 7.73364
head 10.8853 -3.10093 4.50288
rclavicle 4.96962e-016 -7.95139e-015
rhumerus -35.1798 -15.7172 -73.3938
rradius 31.4932
rwrist -13.189
rhand -12.7284 18.3344
rfingers 7.12502
rthumb 13.355 -11.2176
lclavicle 4.96962e-016 -7.95139e-015
lhumerus -31.948 -1.8679 80.9239
lradius 41.5002
lwrist -3.57736
lhand -0.403032 32.7476
lfingers 7.12502
lthumb 25.2043 61.1033
rfemur -34.1375 1.99944 7.42261
rtibia 18.1801
rfoot -12.3352 -12.8905
rtoes 8.65826
lfemur 2.52044 -3.75634 -31.4707
ltibia 17.2274
lfoot -17.7315 1.48457
ltoes 1.87763
219
root -0.0991418 17.9198 -21.3684 4.62888 2.60113 7.47432
lowerback 6.52377 0.169863 -10.3282
upperback 0.205853 -0.491096 1.55696
thorax -3.36044 -0.0684069 7.52081
lowerneck -15.4173 -5.43967 -15.0354
upperneck 23.9897 -5.69061 7.79712
head 10.9862 -3.06285 4.55082
rclavicle -1.39149e-015 8.74653e-015
rhumerus -35.1357 -16.069 -73.1542
rradius 31.1867
rwrist -13.079
rhand -12.3337 18.7087
rfingers 7.12502
rthumb 13.7355 -10.818
lclavicle -1.39149e-015 8.74653e-015
lhumerus -31.5101 -1.66796 80.9643
lradius 41.1015
lwrist -3.76978
lhand -0.0365883 32.9498
lfingers 7.12502
lthumb 25.5553 61.2556
rfemur -34.2932 1.89093 7.09815
rtibia 17.4537
rfoot -12.6939 -12.4063
rtoes 5.71715
lfemur 3.35144 -3.69706 -31.5404
ltibia 16.6027
lfoot -17.7062 1.16114
ltoes 1.12164
